<svg xmlns="http://www.w3.org/2000/svg" viewBox="0 0 904.53 387.98"><defs><style>.cls-1{fill:#fff;}.cls-2{font-size:55.75px;font-family:AmericanTypewriter, American Typewriter;}.cls-3{font-size:17.66px;font-family:GillSans-Italic, Gill Sans;font-style:italic;}.cls-4{letter-spacing:0.02em;}.cls-5{letter-spacing:0em;}.cls-6{letter-spacing:-0.02em;}.cls-7{fill:#b200ec;}</style></defs><g id="Layer_2" data-name="Layer 2"><g id="Violet"><rect class="cls-1" width="904.53" height="387.98"/><text class="cls-2" transform="translate(327.12 295.42)">De Linde </text><text class="cls-3" transform="translate(433.72 317.97)">Holistis<tspan class="cls-4" x="47.68" y="0">c</tspan><tspan class="cls-5" x="54.83" y="0">he p</tspan><tspan class="cls-6" x="84.42" y="0">r</tspan><tspan x="89.6" y="0">aktijk</tspan></text><ellipse class="cls-7" cx="446.48" cy="160.13" rx="93.91" ry="90.12"/><path class="cls-1" d="M442.56,250.16c-.46-4.08-2-13.26-2.1-14.3-.19-3.26-2-6.84.25-8.91a45.07,45.07,0,0,0,8.32-9.18h0a8.77,8.77,0,0,0,.63,1.61c.22.62.43,1.24.64,1.87.45,1.4.85,2.81,1.24,4.22.42,1.57.82,3.14,1.21,4.71.2.82.4,1.65.59,2.47s.36,1.49.53,2.24a.39.39,0,0,1,0,.3,10.48,10.48,0,0,1-.8.82c-.29.35-.58.71-.84,1.08a18.16,18.16,0,0,0-1.41,2.36,16.47,16.47,0,0,0-1.56,5.32,36.85,36.85,0,0,1-.55,5,1.41,1.41,0,0,0,0,.42l2-.06c0-.16.09-.33.13-.52.11-.5,0-2.44,0-2.94s0-.84.07-1.27a6.91,6.91,0,0,1,1.85-4.59,7.42,7.42,0,0,1,2.22-1.32h0c.82,3.53,1.65,7,2.51,10.11l3.4-.44c-.21-6.85-1.8-15.64-3-18.83A39.52,39.52,0,0,1,455.23,214l1.66-.4c2.95,5.87,9.05,8,13.39,12,.22,7.15-.54,14.43.93,21.41l2-.52a13.62,13.62,0,0,1-.95-6c.28-4,2.3-7.87,2.34-11.78,2.09,2.59,9.36,8,14.06,11.94l1.86-.93c-.44-.71-.93-1.43-1.46-2.16a14.71,14.71,0,0,1,6-.3l2.58-1.55a30.16,30.16,0,0,0-5-.83c-1.36-.15-4.08-.3-6.07-.44-7.61-8.78-20.12-17.85-26.34-21.55,5.35.57,10.72,1,16.09,1.31l4.06.26a8.46,8.46,0,0,1,3.25.51c1.67.88,3.7,4.21,3.88,6.16a17.71,17.71,0,0,0,.21,3,5.73,5.73,0,0,0,2.24,3c.64.49,6.52,4,10.69,6.65l1.07-.74c-4.12-2.73-9.75-6.55-9.93-6.71a2.28,2.28,0,0,1-.62-1,28.51,28.51,0,0,1-1-6.14c-.18-1.49-.53-1.71-1.37-2.85h0c2.87.19,11.42,2.42,19.26,5.5h0c-.1,1-.16,2-.18,3a5.7,5.7,0,0,0,.1,1.55,7.88,7.88,0,0,0,.53,1.38l0,0,1.6-1.39a20.9,20.9,0,0,1-.24-3.87c1,.38,2.05.77,3.17,1.17l2.14-2.13c-12.52-5.4-32.23-10.55-40.9-11.35a73.73,73.73,0,0,1-13.59-2.48c-5.81-1.51-5-11.25-4.86-17.68,0-1.73.07-3.46.11-5.19a1.71,1.71,0,0,1,1.25.19c.35.21.6.56.93.79,1.84,1.26,4.42-1.71,6.38-.65,1.07.57,1.27,2,2,3a3.16,3.16,0,0,0,3.88.86c1-.54,2.16-1.7,3.12-1,.4.27.56.78.82,1.19a2.65,2.65,0,0,0,4.15.15,2,2,0,0,0,3.37.63c.4-.52.52-1.21.94-1.7s1.68-.71,1.82-.08l.39-1.37A23.83,23.83,0,0,0,496.38,184c1.81-1,3.73-2.84,3-4.79,1.05.75,2.3-.85,2.2-2.13s-.71-2.63-.13-3.77c.49-1,1.66-1.36,2.58-2s1.66-1.93.91-2.73c2.17.58,4.41-1.2,5.15-3.32s.39-4.45,0-6.67a10.74,10.74,0,0,0-1.08-3.71c-.65-1.12-1.69-2-2.29-3.13a10.48,10.48,0,0,1-.87-3,53.85,53.85,0,0,0-2.79-9.55c-1.58-4-4.81-8.39-9-7.61a13.13,13.13,0,0,0-4.33,2.16,6.23,6.23,0,0,1-4.59,1.21c-1.58-.37-2.79-2.35-1.87-3.68a5.56,5.56,0,0,0,5.28-4.49c-1.79-1-1.5-3.64-1.39-5.71a11.36,11.36,0,0,0-2.81-8.39,9.1,9.1,0,0,0-5.62-2.76c1.08-2.18-.45-4.73-2.14-6.46a25.47,25.47,0,0,0-6.74-4.91,4,4,0,0,0,1.21-3l-12.79-1.51c-1-.12-2-.24-3-.45a17.34,17.34,0,0,1-9.88-6.07,15.3,15.3,0,0,1-5.78,1.45,5.2,5.2,0,0,1-4.85-2.9,24,24,0,0,0-4.59,14,14,14,0,0,1-5.75-2.8c.21,1.54-1.47,2.64-3,3s-3.25.51-4.21,1.72-.85,3-2,3.91-2.92.34-4.43.47c-2.81.24-4.83,3-7.59,3.58-1.37.28-2.82,0-4.17.37-2.18.6-3.6,2.83-3.93,5.07a17.63,17.63,0,0,0,.73,6.71,4.69,4.69,0,0,0-5.78,5,9.06,9.06,0,0,0,2.19,4l5.61,7a14.13,14.13,0,0,0-7.92,9.15,2.56,2.56,0,0,1,3.13,2.31c-1.6.39-3.25-.22-4.87-.51s-3.6-.1-4.44,1.32a5,5,0,0,0-.46,2.5l0,7.53c-1.45,1.77-.9,4.56.61,6.28s3.72,2.63,5.85,3.48c1.1,1.9-1.36,3.84-3.39,4.68s-4.49,2.78-3.39,4.68a3.78,3.78,0,0,0,1.77,1.34,39.82,39.82,0,0,0,11.45,3.37,3.07,3.07,0,0,0-.14,5.23c-.36-.5.11-1.25.71-1.4a2.86,2.86,0,0,1,1.77.34l6.87,2.91a2.66,2.66,0,0,0,.29,4l2.95-2.08,3.09-2.18a4,4,0,0,1,3-1.05c1.54.36,2.11,2.37,3.53,3.09a5.12,5.12,0,0,0,2.73.26,53.87,53.87,0,0,1,8.8,0c.81.06,1.88.49,1.71,1.28a6.21,6.21,0,0,0,3.72-1.58l-.72-3.15a9.49,9.49,0,0,0,4.22.38c2.77-.59,2.18-3.42,4.28-4.54.32-1.25,1.32-1.42,2.51-1.26-.06,5.32-.11,10.64-.6,16a16,16,0,0,1-1.24,5.71c-1.68,3.33-5.32,4.63-8.62,5.63-8.63,2.64-38,9.11-49.24,17,.79.69,1.53,1.23,2.2,1.74,2.87-1,6.42-2.21,10.05-3.53h0a9.91,9.91,0,0,1,0,4.9,10.67,10.67,0,0,1-1.41,2.75,7.35,7.35,0,0,1-.89,1.21c.44.28,1.23.77,1.48.9a5.62,5.62,0,0,0,1.87-1.52,9.06,9.06,0,0,0,1.72-4.83,43.84,43.84,0,0,0,.05-4.44h0c6.62-2.44,13.06-4.89,15.86-5.88a16,16,0,0,1-.43,4.2c-.92,3.41-3.48,5.73-5.54,8.32a30.17,30.17,0,0,0-4.76,8.75l1.19.54c2.17-3.83,5.87-6.05,8.61-9.4,3.26-4,5.08-9.39,7.74-14,1.64-.35,4.93-1.11,5.75-1.23l15.57-2.22h0c1.44,3.3-2.4,6.21-5.36,7.8-5.49,2.95-22.09,14.89-27,21.21l.89.33c2.65-1.65,7.5-5.58,9.2-6.65.23,2.21-.9,6.12-1.79,9l.88.23a23.94,23.94,0,0,0,3-5.7,20.42,20.42,0,0,0,.58-5.23h0c2.48-1.57,4.82-3,5.88-3.59,2.25-1.16,4.78-2.72,5.85,1,.57,2,3.79,13.65,4.73,16.56"/></g></g></svg>