<svg xmlns="http://www.w3.org/2000/svg" viewBox="0 0 562.5 339.79"><defs><style>.cls-1{fill:#fff;}.cls-2{font-size:50.54px;font-family:AmericanTypewriter, American Typewriter;}.cls-3{font-size:16.01px;font-family:GillSans-Italic, Gill Sans;font-style:italic;}.cls-4{letter-spacing:0.02em;}.cls-5{letter-spacing:-0.02em;}.cls-6{fill:#b200ec;}</style></defs><g id="Layer_2" data-name="Layer 2"><g id="Violet"><rect class="cls-1" width="562.5" height="337.5"/><text class="cls-2" transform="translate(175.19 260.7)">De Linde </text><text class="cls-3" transform="translate(271.82 281.14)">Holistis<tspan class="cls-4" x="43.22" y="0">c</tspan><tspan x="49.7" y="0">he p</tspan><tspan class="cls-5" x="76.53" y="0">r</tspan><tspan x="81.22" y="0">aktijk</tspan></text><ellipse class="cls-6" cx="283.39" cy="138.05" rx="85.13" ry="81.7"/><path class="cls-1" d="M279.84,219.67c-.42-3.7-1.85-12-1.91-13-.17-2.95-1.84-6.2.23-8.08a40.78,40.78,0,0,0,7.55-8.31h0a7.13,7.13,0,0,0,.57,1.45c.2.56.39,1.13.57,1.7.41,1.27.78,2.55,1.13,3.83s.74,2.84,1.09,4.27c.19.74.37,1.49.55,2.24l.48,2a.36.36,0,0,1-.05.27,6.47,6.47,0,0,1-.72.75c-.27.32-.52.64-.76,1a15.93,15.93,0,0,0-1.28,2.14,14.78,14.78,0,0,0-1.41,4.82,34.56,34.56,0,0,1-.5,4.56,1.19,1.19,0,0,0,0,.39l1.85-.06c0-.15.08-.3.12-.48.1-.45,0-2.21,0-2.66s0-.76.06-1.15a6.3,6.3,0,0,1,1.68-4.16,6.48,6.48,0,0,1,2-1.19h0c.75,3.2,1.5,6.35,2.27,9.17l3.08-.4c-.18-6.21-1.63-14.18-2.74-17.07a35.94,35.94,0,0,1-2.37-14.84l1.51-.35c2.67,5.32,8.2,7.25,12.14,10.92.2,6.48-.49,13.08.84,19.41l1.79-.47a12.45,12.45,0,0,1-.87-5.46c.26-3.62,2.09-7.14,2.12-10.68,1.91,2.35,8.49,7.25,12.75,10.82l1.69-.84c-.4-.64-.84-1.3-1.33-2a13.44,13.44,0,0,1,5.43-.27l2.33-1.41a28.74,28.74,0,0,0-4.53-.75c-1.23-.13-3.7-.27-5.5-.4-6.9-7.95-18.24-16.18-23.88-19.53,4.85.52,9.72.87,14.59,1.19l3.68.23a7.62,7.62,0,0,1,2.94.46c1.52.8,3.36,3.83,3.52,5.58a17.68,17.68,0,0,0,.19,2.74,5.16,5.16,0,0,0,2,2.68c.58.45,5.91,3.64,9.68,6l1-.67c-3.74-2.48-8.84-5.94-9-6.09a2,2,0,0,1-.56-.94,26.13,26.13,0,0,1-.87-5.57,4.2,4.2,0,0,0-1.24-2.57h0c2.6.18,10.35,2.19,17.45,5h0c-.08.91-.14,1.82-.16,2.74a5.93,5.93,0,0,0,.09,1.4,8.12,8.12,0,0,0,.49,1.25v0l1.45-1.26a19.72,19.72,0,0,1-.21-3.51c.88.34,1.86.7,2.87,1.06l1.94-1.93c-11.35-4.9-29.22-9.57-37.08-10.28a66.82,66.82,0,0,1-12.32-2.26c-5.26-1.37-4.52-10.19-4.4-16,0-1.57.07-3.14.1-4.7a1.54,1.54,0,0,1,1.13.16c.32.19.54.51.85.72,1.66,1.14,4-1.55,5.78-.59,1,.52,1.15,1.82,1.81,2.7a2.86,2.86,0,0,0,3.52.78c.94-.49,2-1.54,2.83-.94a3.41,3.41,0,0,1,.74,1.07,2.4,2.4,0,0,0,3.77.14,1.83,1.83,0,0,0,3,.57c.36-.46.47-1.09.85-1.53s1.52-.65,1.65-.08l.35-1.24a21.64,21.64,0,0,0,10.32-2.52c1.64-.89,3.38-2.57,2.76-4.34.94.67,2.08-.77,2-1.93s-.65-2.39-.12-3.42,1.5-1.24,2.34-1.78,1.5-1.75.82-2.48c2,.54,4-1.08,4.68-3s.35-4,0-6.05a9.88,9.88,0,0,0-1-3.36c-.59-1-1.54-1.8-2.09-2.84a9.8,9.8,0,0,1-.78-2.74,48.42,48.42,0,0,0-2.53-8.65c-1.43-3.61-4.37-7.61-8.18-6.91a11.86,11.86,0,0,0-3.92,2,5.73,5.73,0,0,1-4.16,1.09c-1.43-.33-2.53-2.13-1.7-3.34a5,5,0,0,0,4.78-4.07c-1.62-.94-1.35-3.29-1.25-5.17a10.33,10.33,0,0,0-2.55-7.61,8.27,8.27,0,0,0-5.1-2.5c1-2-.4-4.29-1.94-5.86a23.27,23.27,0,0,0-6.1-4.45,3.63,3.63,0,0,0,1.09-2.69l-11.6-1.37c-.92-.1-1.84-.21-2.75-.4a15.82,15.82,0,0,1-9-5.5,14,14,0,0,1-5.23,1.31,4.72,4.72,0,0,1-4.4-2.63,21.74,21.74,0,0,0-4.17,12.7,12.81,12.81,0,0,1-5.21-2.54c.2,1.39-1.33,2.39-2.7,2.72s-2.94.47-3.82,1.57S256.11,88.18,255,89s-2.64.31-4,.43c-2.55.22-4.37,2.73-6.88,3.24-1.24.26-2.56,0-3.78.34a5.48,5.48,0,0,0-3.57,4.6,16.16,16.16,0,0,0,.67,6.08,4.25,4.25,0,0,0-5.24,4.49,8.09,8.09,0,0,0,2,3.6l5.08,6.34a12.82,12.82,0,0,0-7.18,8.3,2.32,2.32,0,0,1,2.84,2.09c-1.45.36-2.94-.2-4.41-.47s-3.27-.08-4,1.2a4.48,4.48,0,0,0-.42,2.27l0,6.82c-1.31,1.61-.81,4.14.56,5.7a13.31,13.31,0,0,0,5.3,3.15c1,1.73-1.23,3.49-3.07,4.25s-4.07,2.51-3.08,4.24a3.37,3.37,0,0,0,1.61,1.21,36.49,36.49,0,0,0,10.38,3.06,2.78,2.78,0,0,0-.13,4.74c-.32-.46.1-1.13.64-1.27a2.63,2.63,0,0,1,1.61.31l6.23,2.64a2.4,2.4,0,0,0,.26,3.58l2.68-1.88,2.8-2a3.55,3.55,0,0,1,2.71-.94c1.4.32,1.92,2.14,3.2,2.79a4.72,4.72,0,0,0,2.48.24,49.44,49.44,0,0,1,8,0c.73.07,1.71.45,1.54,1.17a5.59,5.59,0,0,0,3.38-1.44c-.22-.95-.43-1.9-.65-2.85a8.73,8.73,0,0,0,3.82.34c2.51-.53,2-3.1,3.88-4.11.29-1.13,1.2-1.29,2.28-1.15-.06,4.83-.1,9.65-.55,14.53a14.42,14.42,0,0,1-1.12,5.17c-1.52,3-4.82,4.2-7.81,5.11-7.83,2.39-34.46,8.26-44.64,15.43.72.62,1.39,1.11,2,1.58,2.6-.86,5.81-2,9.11-3.21h0a8.82,8.82,0,0,1,0,4.45,9.75,9.75,0,0,1-1.27,2.49,7.64,7.64,0,0,1-.81,1.1c.4.25,1.12.69,1.34.81a5.17,5.17,0,0,0,1.7-1.38,8.12,8.12,0,0,0,1.55-4.38,35.92,35.92,0,0,0,.05-4h0c6-2.21,11.84-4.43,14.38-5.33a14.86,14.86,0,0,1-.39,3.81c-.84,3.09-3.16,5.19-5,7.54a27.34,27.34,0,0,0-4.31,7.93c.32.16.68.32,1.07.49,2-3.47,5.32-5.49,7.81-8.52,3-3.59,4.6-8.51,7-12.69,1.49-.32,4.47-1,5.22-1.11l14.11-2h0c1.3,3-2.18,5.62-4.86,7.06-5,2.67-20,13.5-24.49,19.23l.81.3c2.41-1.5,6.8-5.06,8.34-6,.21,2-.82,5.55-1.62,8.16l.8.21a21.83,21.83,0,0,0,2.73-5.17,18.83,18.83,0,0,0,.52-4.74h0c2.25-1.42,4.37-2.75,5.33-3.25,2-1.06,4.33-2.47,5.3.93.52,1.81,3.44,12.37,4.29,15"/></g></g></svg>