<svg xmlns="http://www.w3.org/2000/svg" viewBox="0 0 562.5 337.5"><defs><style>.cls-1{fill:#fff;}.cls-2{fill:#00811f;}</style></defs><g id="Layer_2" data-name="Layer 2"><g id="Violet"><rect class="cls-1" width="562.5" height="337.5"/><path class="cls-2" d="M215,128.43c4.69,7,5.09,18.74.9,27a25.55,25.55,0,0,1-6.5,7.77,6.87,6.87,0,0,0-1.77,1.66c0,.21,2.67,5,5.92,10.68S219.65,186.42,220,187l.57,1.08-3,.08a24.29,24.29,0,0,0-10,2.2c-4.23,1.91-4.37,1.41,2.09,6.93,7.62,6.46,6.72,6,8.74,5,5.2-2.46,9.93-3.39,16.86-3.36a50.71,50.71,0,0,1,7.22.4,10.68,10.68,0,0,0,1.88.32s-4.48-6.31-10-14-10.07-14-10.11-14.19a13.22,13.22,0,0,1,3.18,1.34c6.64,3.32,18.7,7.51,29.86,10.36,4.62,1.19,5.81,1.62,4.87,1.7a65,65,0,0,1-11.73-1.23c-5.27-1.16-6.5-1.08-4.95.32.87.8,6.32,3.14,10.54,4.55,8.6,2.89,19.07,3.07,26,.44,3.32-1.27,7.69-5.13,7-6.25-.15-.22-2.89-.25-7.33-.11-5.64.22-7.8.15-10.51-.32a55.71,55.71,0,0,1-11.74-3.25l-1.76-.8,7.07-.43c16.54-1.05,28.49-4,31.71-8a3.83,3.83,0,0,0,1.08-3.11,5.72,5.72,0,0,0-2.85-5c-1-.55-1-.51-2.6,1.08a37.08,37.08,0,0,1-9.5,6.46c-6.43,3-12.78,4-22.6,3.68a59.43,59.43,0,0,1-17.3-2.67c-4.33-1.3-13-4.58-13.94-5.31-.47-.36-.32-.83,1.2-3.82a23.22,23.22,0,0,0,2.85-10.51A20.23,20.23,0,0,0,230.81,140c-2.2-4.44-5-6.79-15.71-12.82l-1.66-1Z"/><path class="cls-2" d="M158.48,129.62c-2.34,1-3.64,2.89-2.49,3.61a18.71,18.71,0,0,0,3.25.72c7.69,1.34,19.25,6.25,36.25,15.46a37.71,37.71,0,0,0,6.18,3,6.63,6.63,0,0,0,1.44-2.28c.91-1.84,1-2.45,1-5.52,0-3.94-.47-5.6-2-7-1.69-1.63-3.53-1.59-10.9.14-3.5.8-6.57,1.48-6.9,1.48a22.93,22.93,0,0,1-4.11-2.38C171.09,130.63,162.56,127.85,158.48,129.62Z"/><path class="cls-2" d="M86.77,132.29c-6.06,3-8.81,6.07-8.81,9.68s3,6.43,9.9,9.68a25,25,0,0,0,3.86,1.58c.29,0,.33.11.15.33-.62.61-8.45,1.23-12.1.94-1.88-.11-5.78-.65-8.67-1.16-8.41-1.48-7.94-1.48-7.94-.07,0,1,.4,1.59,2.28,3.39a19.9,19.9,0,0,0,6.39,4.23A63.05,63.05,0,0,0,102,167.24c5.77-.14,6.35-.21,9.56-1.33a69.53,69.53,0,0,0,11.34-5.27c.4-.29.58-.65.44-.8-.55-.54-4.48-.14-7.26.76-5.67,1.84-10.62,1.52-13.25-.83l-1.16-1,.9-.29c.47-.14,3.18-1.23,6-2.42,29-12,40.37-13.22,63.77-6.79,5.27,1.45,8.77,2.67,6.72,2.35a60.59,60.59,0,0,0-11.92-.18c-11.88,1-21.41,3.68-33.4,9.57-6.68,3.25-12.1,6.6-13.65,8.45-1.91,2.31-.86,3,2.39,1.62,4.62-1.95,6.82-2.67,8.16-2.67,1.87,0,4.69.87,8.52,2.63a16.15,16.15,0,0,0,10.61,1.38c3.61-.8,8.85-3.69,15-8.34,7.15-5.38,10.84-7.33,14.23-7.51a6.4,6.4,0,0,1,3.72.57l1.37.73,5.13-1.3A49.56,49.56,0,0,0,194.7,155c.36-.33-12.85-6.72-18.7-9.06-18.89-7.51-34.09-9.54-48.57-6.43-1.88.43-6.43,1.73-10.11,2.92s-7.73,2.39-9,2.68c-4.58,1-10.76.39-14.33-1.34s-4.62-5.31-2.85-10.22c.5-1.48.94-2.78.94-2.89C92.05,130.05,90,130.7,86.77,132.29Z"/><path class="cls-2" d="M340.9,132.69c-5.63,1-9.68,5.38-10.54,11.44-.73,5.2.94,11.23,3.79,13.76,2.31,2,4,2.67,7.44,2.85,3.64.18,5.09-.21,7.36-2l1.63-1.22v2.89h4.69V145.29H341.91v4.33h3.76c2.09,0,3.9.15,4,.36.36.58-.5,3.18-1.48,4.3a6.79,6.79,0,0,1-6.35,1.81c-3.94-.87-6.32-5-6-10.22a9.1,9.1,0,0,1,2.71-6.43c2.89-2.74,8-2.78,11.59-.07l1.23.94,1.59-1.56a7.12,7.12,0,0,0,1.59-1.95c0-.64-3.11-2.7-5.17-3.43A19.35,19.35,0,0,0,340.9,132.69Z"/><path class="cls-2" d="M485,134.67l-2.27,1.3v4.63h-3.61v4.33h3.61v6.32c0,7.18.25,8.19,2.35,9.06a15.62,15.62,0,0,0,6.46.29c.43-.18.58-.72.58-2.17v-2h-1.55c-2.6,0-2.78-.47-2.78-6.42v-5.13h4V140.6h-4V137a12.6,12.6,0,0,0-.26-3.62A27,27,0,0,0,485,134.67Z"/><path class="cls-2" d="M44.85,138.07a2.81,2.81,0,0,0-1.55,2.67c0,1.08,1.84,3,3.18,3.32A28,28,0,0,1,54,146.92c1.16.68,2.13,1.26,2.21,1.26.79,0-1.85-5.2-3.62-7.15C50.2,138.47,47,137.24,44.85,138.07Z"/><path class="cls-2" d="M366.36,140.27a9.27,9.27,0,0,0-7.12,6.61,16.12,16.12,0,0,0-.29,4.62c.26,4.44,1.66,6.75,5.35,8.63,1.3.65,2.2.83,4.73.83,2.71,0,3.32-.11,5.2-1.05,2.92-1.48,3.1-1.91,1.66-3.75l-1.19-1.48-1.66,1a6.69,6.69,0,0,1-6.87.18,5.64,5.64,0,0,1-2.23-3.32c0-.21,2.38-.36,7-.36h7v-2.09c0-4.41-1.7-7.55-4.84-8.92A11.58,11.58,0,0,0,366.36,140.27Zm4.94,4.62c.72.62,1.74,2.86,1.48,3.29s-8.37.47-8.66,0,.61-2.17,1.55-3C367.08,143.92,370,143.77,371.3,144.89Z"/><path class="cls-2" d="M422.39,140.27c-3.25.51-5.27,2.06-7,5.38-.5,1-.68,2.1-.68,4.88,0,3.32.07,3.75,1.08,5.59,2.53,4.62,8.81,6.32,14.12,3.83a18.19,18.19,0,0,0,2.45-1.37c.69-.54.65-.58-.32-2-.58-.76-1.16-1.52-1.26-1.7s-.94.11-1.85.61c-2.31,1.3-4,1.52-5.92.76a5,5,0,0,1-3.21-3.35l-.25-.8h14.22l-.18-3a10.82,10.82,0,0,0-.94-4.44C430.81,141.21,427,139.55,422.39,140.27ZM427,145c.79.68,1.62,2.49,1.4,3.06-.14.4-1.11.51-4.33.51a18.49,18.49,0,0,1-4.33-.29c-.22-.4.79-2.42,1.59-3.14A4.93,4.93,0,0,1,427,145Z"/><path class="cls-2" d="M444,140.27c-5.13.83-8.2,5.38-7.77,11.52s5.46,10,11.63,9.24a16.21,16.21,0,0,0,6.14-2.45c.68-.54.65-.62-.51-2.24a8.62,8.62,0,0,0-1.37-1.66,7.27,7.27,0,0,0-1.19.72,8.82,8.82,0,0,1-3,1.16,4.13,4.13,0,0,1-3.58-.4,4.85,4.85,0,0,1-3-3.21l-.25-.8h14.12v-2.64C455.29,143,450.63,139.19,444,140.27Zm4.69,4.7a5.92,5.92,0,0,1,1.55,3c0,.47-.65.54-4.26.54a27.21,27.21,0,0,1-4.51-.22c-.29-.29,1-2.74,1.7-3.35A5.07,5.07,0,0,1,448.68,145Z"/><path class="cls-2" d="M501.69,140.24c-4.63.75-7.41,4.18-7.69,9.6-.4,7,3.35,11.12,10.21,11.12a9.34,9.34,0,0,0,4.88-.94,28.05,28.05,0,0,0,2.67-1.51c.65-.51.61-.62-.54-2.1-.65-.87-1.23-1.59-1.23-1.66a9,9,0,0,0-1.66.83c-2.31,1.3-4.22,1.48-6.25.61-1.55-.72-3.1-2.49-3.1-3.61,0-.32,1.66-.43,7-.43h7V149.7a9.85,9.85,0,0,0-1.95-6.4C509.31,141,505.3,139.66,501.69,140.24Zm4.47,4.54c.91.65,2,2.86,1.66,3.4s-8.23.5-8.59.14.54-2.31,1.63-3.21A5.06,5.06,0,0,1,506.16,144.78Z"/><path class="cls-2" d="M389.39,140.67a11,11,0,0,0-1.88,1.48l-1.19,1.12V140.6h-4.69v19.86h5.05v-6.14c0-7.87.47-9.17,3.4-9.64,1.08-.18,1.44,0,2.38.9l1.08,1.08v13.8H399V154c0-7.12.22-8.16,2-9a2.72,2.72,0,0,1,3,.11c1.55.79,1.84,2.17,1.84,9.06v6.29h5.06v-8c0-7.62,0-8.06-.8-9.43-1.05-1.88-2.89-2.81-5.49-2.81a6.16,6.16,0,0,0-5,1.76l-1.26,1.09-.87-.91a8.76,8.76,0,0,0-1.84-1.44C394.48,140.13,390.44,140.09,389.39,140.67Z"/><path class="cls-2" d="M466.48,141a8.83,8.83,0,0,0-1.88,1.52c-.61.79-.65.79-.65-.58V140.6H458.9v19.86h5.38l.11-6.87.11-6.86,1-1a3.76,3.76,0,0,1,5-.18c.79.79.83,1.08.93,7.83l.11,7.05H477v-6.79c0-9.32-.39-10.65-3.25-12.64C472.08,140,468.32,139.91,466.48,141Z"/><path class="cls-2" d="M187.84,171.18l-3.72.94v25.06l-2.06,1.12a16.5,16.5,0,0,1-9.17,2.16c-2.6-.11-2.78-.07-2.17.44.4.28,3.25,2.74,6.4,5.41l5.7,4.88,3.83,0a14.83,14.83,0,0,0,9.49-2.67l1.7-1.08V180.31l-2.53-5.05c-1.87-3.72-2.7-5.06-3.17-5S189.86,170.71,187.84,171.18Z"/><path class="cls-2" d="M457.82,175.48v5.27l-1.09-.94c-3.32-2.78-8.88-1.81-11.44,2.06-2.82,4.19-2.39,11.33.9,14.84a8,8,0,0,0,5.74,2.38,6.3,6.3,0,0,0,5.09-1.91l1.16-1.12v2.31h4.69V170.2h-5.05ZM455.25,183c2.13,1.12,3.22,4.29,2.53,7.51-1.3,5.92-7.87,5.67-8.85-.36C448.1,185,451.57,181.11,455.25,183Z"/><path class="cls-2" d="M332.16,184.83v13.54h5l.11-5,.11-5,1.91-.11a4.53,4.53,0,0,1,2.46.33c.25.21,1.8,2.49,3.43,5.05l2.92,4.66h3.07c2.35,0,3-.11,2.78-.47s-1.62-2.49-3.29-5-3-4.69-3-4.8.21-.18.47-.18c1.19,0,3.57-2.28,4.47-4.23a7,7,0,0,0,.76-4.47c-.25-3.4-1.55-5.49-4.22-6.9l-1.92-1H332.16Zm13.72-8.56a4,4,0,0,1,1.12,6.28L346,183.74H337.4l-.11-3.57a35.68,35.68,0,0,1,.07-4.08C337.65,175.33,344.26,175.44,345.88,176.27Z"/><path class="cls-2" d="M383.36,172.7l-2.42,1.3-.11,2.34-.1,2.35-1.7.11-1.73.11v3.9l1.73.1,1.7.11.18,6.75c.18,6.72.18,6.79,1.12,7.73,1.15,1.16,3.39,1.63,6.21,1.34l2.05-.22v-4.08l-1.4.15a2.27,2.27,0,0,1-2.17-.62c-.69-.68-.76-1.15-.76-6v-5.24h4v-4H386l-.11-3.75-.11-3.76Z"/><path class="cls-2" d="M398.17,172.7l-2.42,1.3-.11,2.34-.11,2.35-1.7.11-1.73.11v3.9l1.73.1,1.7.11.18,6.75c.18,6.72.18,6.79,1.12,7.73,1.16,1.16,3.39,1.63,6.21,1.34l2.06-.22v-4.08l-1.41.15a2.28,2.28,0,0,1-2.17-.62c-.68-.68-.75-1.15-.75-6v-5.24h4v-4H400.8l-.11-3.75-.1-3.76Z"/><path class="cls-2" d="M362.85,178.47c-4.91,1.52-7.58,5.74-7.11,11.3.36,4.37,3.11,8,6.86,9a14.45,14.45,0,0,0,8-.69c4.34-2.2,6.32-8.05,4.59-13.47a9.47,9.47,0,0,0-5.92-5.88A13.2,13.2,0,0,0,362.85,178.47Zm5.67,5.17a6.38,6.38,0,0,1,1.92,5c0,5-4.16,7.87-7.37,5-4-3.47-1.66-11.63,3.14-11A4.44,4.44,0,0,1,368.52,183.64Z"/><path class="cls-2" d="M413.76,178.47c-4.44,1.45-6.86,5-6.86,10.08,0,4.76,1.56,7.65,5.1,9.42a8.49,8.49,0,0,0,4.8,1.12c3.14,0,4.62-.4,6.82-1.8l1.74-1.09-1.16-1.62a9.28,9.28,0,0,0-1.34-1.63c-.1,0-1,.44-2.13.94a5.91,5.91,0,0,1-3.93.8,4,4,0,0,1-3.22-1.41,7.13,7.13,0,0,1-1.44-2.06l-.22-.8h14.23l-.18-3c-.22-4.19-1.66-6.65-4.8-8.27A13.76,13.76,0,0,0,413.76,178.47Zm5.82,5a5,5,0,0,1,1.23,2l.25,1h-4.55a27.68,27.68,0,0,1-4.55-.18c0-1,2.06-3.43,3.25-3.9A4.66,4.66,0,0,1,419.58,183.46Z"/><path class="cls-2" d="M472.44,178.62c-1.88.5-4.69,1.8-5,2.34a9.68,9.68,0,0,0,2.13,3.33s1.05-.44,2.2-1c2.42-1.12,5.42-1.33,6.47-.47.76.65,1.37,2.2,1,2.57a23.65,23.65,0,0,1-3.72,1c-6.39,1.41-8.67,3.22-8.67,6.86s2.57,5.78,6.75,5.78c2.5,0,4.81-.9,5.6-2.17.65-1,1-.9,1,.37v1.08h6.86v-4h-2.45l-.15-6.07c-.1-6.86-.39-7.69-2.92-9.1C479.81,178.22,475.15,177.93,472.44,178.62Zm7,12.06a5.23,5.23,0,0,1-2.17,4c-1.44.72-3.86.58-4.69-.25-1.59-1.59-.54-3,3-4C478.9,189.45,479.48,189.49,479.48,190.68Z"/><path class="cls-2" d="M498,178.83a7.29,7.29,0,0,0-2.24,1.67l-.79,1v-2.64H490v19.5h5.42v-6.32c0-6.72.25-8,1.77-8.85a3.54,3.54,0,0,1,4,.58c.83.9.87,1.08,1,7.76l.1,6.83h5v-6.1a47.15,47.15,0,0,1,.33-7,3.6,3.6,0,0,1,3.14-2.42c3.07,0,3.39.83,3.39,9v6.5h5.49l-.14-8.05c-.11-7.26-.18-8.13-.83-9.21-2.1-3.5-7.84-3.9-10.84-.8l-1,1.05-.72-.94a7.47,7.47,0,0,0-5.13-2.27A8.83,8.83,0,0,0,498,178.83Z"/><path class="cls-2" d="M437.78,179a8,8,0,0,0-2.28,1.88l-1.12,1.41,0-1.73v-1.7h-4.7v19.5h5l.18-5c.25-7.41,1.37-9.39,5.56-9.75l2-.15v-5h-1.7A9.78,9.78,0,0,0,437.78,179Z"/></g></g></svg>